<?xml version="1.0" encoding="utf-8"?>
<!-- Generator: Adobe Illustrator 16.0.0, SVG Export Plug-In . SVG Version: 6.00 Build 0)  -->
<!DOCTYPE svg PUBLIC "-//W3C//DTD SVG 1.1//EN" "http://www.w3.org/Graphics/SVG/1.1/DTD/svg11.dtd">
<svg version="1.1" id="icon" xmlns="http://www.w3.org/2000/svg" xmlns:xlink="http://www.w3.org/1999/xlink" x="0px" y="0px"
	 width="26px" height="64px" viewBox="0 0 26 64" enable-background="new 0 0 26 64" xml:space="preserve">
<g id="arrow_1_">
	<path fill="#FFFFFF" d="M19.504,9.167L19.504,9.167c0.372,0,0.736,0.105,1.055,0.304c0.453,0.283,0.77,0.725,0.89,1.245
		s0.031,1.057-0.252,1.51L9.188,31.471L8.857,32l0.33,0.529l12.009,19.246c0.283,0.453,0.372,0.989,0.252,1.51
		s-0.437,0.963-0.89,1.245c-0.318,0.199-0.683,0.304-1.056,0.304c-0.697,0-1.332-0.352-1.699-0.941L4.143,32l13.661-21.892
		C18.172,9.519,18.808,9.167,19.504,9.167 M19.504,8.167c-1.001,0-1.98,0.501-2.549,1.412L2.964,32l13.991,22.422
		c0.568,0.912,1.547,1.412,2.548,1.412c0.542,0,1.091-0.146,1.585-0.455c1.406-0.877,1.834-2.728,0.957-4.133L10.036,32
		l12.009-19.245c0.877-1.406,0.449-3.256-0.957-4.133C20.594,8.313,20.046,8.167,19.504,8.167L19.504,8.167z"/>
</g>
</svg>
