<?xml version="1.0" encoding="utf-8"?>
<!-- Generator: Adobe Illustrator 16.0.0, SVG Export Plug-In . SVG Version: 6.00 Build 0)  -->
<!DOCTYPE svg PUBLIC "-//W3C//DTD SVG 1.1//EN" "http://www.w3.org/Graphics/SVG/1.1/DTD/svg11.dtd" [
	<!ENTITY ns_extend "http://ns.adobe.com/Extensibility/1.0/">
	<!ENTITY ns_ai "http://ns.adobe.com/AdobeIllustrator/10.0/">
	<!ENTITY ns_graphs "http://ns.adobe.com/Graphs/1.0/">
	<!ENTITY ns_vars "http://ns.adobe.com/Variables/1.0/">
	<!ENTITY ns_imrep "http://ns.adobe.com/ImageReplacement/1.0/">
	<!ENTITY ns_sfw "http://ns.adobe.com/SaveForWeb/1.0/">
	<!ENTITY ns_custom "http://ns.adobe.com/GenericCustomNamespace/1.0/">
	<!ENTITY ns_adobe_xpath "http://ns.adobe.com/XPath/1.0/">
]>
<svg version="1.1" id="icon" xmlns:x="&ns_extend;" xmlns:i="&ns_ai;" xmlns:graph="&ns_graphs;"
	 xmlns="http://www.w3.org/2000/svg" xmlns:xlink="http://www.w3.org/1999/xlink" x="0px" y="0px" width="64px" height="64px"
	 viewBox="0 0 64 64" enable-background="new 0 0 64 64" xml:space="preserve">
<metadata>
	<sfw  xmlns="&ns_sfw;">
		<slices></slices>
		<sliceSourceBounds  x="-0.5" y="0.5" height="64" width="64" bottomLeftOrigin="true"></sliceSourceBounds>
	</sfw>
</metadata>
<g id="box">
	<path fill="#FFFFFF" d="M52,6c3.309,0,6,2.691,6,6v40c0,3.309-2.691,6-6,6H12c-3.309,0-6-2.691-6-6V12c0-3.309,2.691-6,6-6H52
		 M52,0H12C5.373,0,0,5.373,0,12v40c0,6.627,5.373,12,12,12h40c6.627,0,12-5.373,12-12V12C64,5.373,58.627,0,52,0L52,0z"/>
</g>
<g id="face">
	<g>
		<path fill="#FFFFFF" d="M13.5,30.64c-0.69,0-1.25-0.56-1.25-1.25v-9.833c0-0.69,0.56-1.25,1.25-1.25h9.833
			c0.69,0,1.25,0.56,1.25,1.25v9.833c0,0.69-0.56,1.25-1.25,1.25H13.5z"/>
		<path fill="#FFFFFF" d="M23.333,19.556v9.833H13.5v-9.833H23.333 M23.333,17.056H13.5c-1.381,0-2.5,1.119-2.5,2.5v9.833
			c0,1.381,1.119,2.5,2.5,2.5h9.833c1.381,0,2.5-1.119,2.5-2.5v-9.833C25.833,18.175,24.714,17.056,23.333,17.056L23.333,17.056z"/>
	</g>
	<g>
		<path fill="#FFFFFF" d="M40.667,30.64c-0.69,0-1.25-0.56-1.25-1.25v-9.833c0-0.69,0.56-1.25,1.25-1.25h9.832
			c0.69,0,1.25,0.56,1.25,1.25v9.833c0,0.69-0.56,1.25-1.25,1.25H40.667z"/>
		<path fill="#FFFFFF" d="M50.499,19.556v9.833h-9.832v-9.833H50.499 M50.499,17.056h-9.832c-1.381,0-2.5,1.119-2.5,2.5v9.833
			c0,1.381,1.119,2.5,2.5,2.5h9.832c1.381,0,2.5-1.119,2.5-2.5v-9.833C52.999,18.175,51.88,17.056,50.499,17.056L50.499,17.056z"/>
	</g>
	<g>
		<path fill="#FFFFFF" d="M27.509,46.317c-0.69,0-1.25-0.56-1.25-1.25v-8.983c0-0.69,0.56-1.25,1.25-1.25h8.982
			c0.69,0,1.25,0.56,1.25,1.25v8.983c0,0.69-0.56,1.25-1.25,1.25H27.509z"/>
		<path fill="#FFFFFF" d="M36.491,36.084v8.983h-8.982v-8.983H36.491 M36.491,33.584h-8.982c-1.381,0-2.5,1.119-2.5,2.5v8.983
			c0,1.381,1.119,2.5,2.5,2.5h8.982c1.381,0,2.5-1.119,2.5-2.5v-8.983C38.991,34.703,37.872,33.584,36.491,33.584L36.491,33.584z"/>
	</g>
	<g>
		<path fill="#FFFFFF" d="M20.273,50.166c-0.69,0-1.25-0.56-1.25-1.25v-6.094c0-0.69,0.56-1.25,1.25-1.25h4.386
			c0.69,0,1.25,0.56,1.25,1.25v6.094c0,0.69-0.56,1.25-1.25,1.25H20.273z"/>
		<path fill="#FFFFFF" d="M24.659,42.822v6.094h-4.386v-6.094H24.659 M24.659,40.322h-4.386c-1.381,0-2.5,1.119-2.5,2.5v6.094
			c0,1.381,1.119,2.5,2.5,2.5h4.386c1.381,0,2.5-1.119,2.5-2.5v-6.094C27.159,41.441,26.04,40.322,24.659,40.322L24.659,40.322z"/>
	</g>
	<g>
		<path fill="#FFFFFF" d="M39.341,50.166c-0.69,0-1.25-0.56-1.25-1.25v-6.094c0-0.69,0.56-1.25,1.25-1.25h4.387
			c0.69,0,1.25,0.56,1.25,1.25v6.094c0,0.69-0.56,1.25-1.25,1.25H39.341z"/>
		<path fill="#FFFFFF" d="M43.728,42.822v6.094h-4.387v-6.094H43.728 M43.728,40.322h-4.387c-1.381,0-2.5,1.119-2.5,2.5v6.094
			c0,1.381,1.119,2.5,2.5,2.5h4.387c1.381,0,2.5-1.119,2.5-2.5v-6.094C46.228,41.441,45.108,40.322,43.728,40.322L43.728,40.322z"/>
	</g>
</g>
</svg>
