<svg xmlns="http://www.w3.org/2000/svg" viewBox="0 -0.5 10 12" shape-rendering="crispEdges">
<metadata>Made with Pixels to Svg https://codepen.io/shshaw/pen/XbxvNj</metadata>
<path stroke="#000000" d="M2 0h2M6 0h2M3 1h3M7 1h1M7 2h1M0 3h1M5 3h1M7 3h1M0 4h2M4 4h2M7 4h1M0 5h1M7 5h1M0 6h8M2 7h1M6 7h1M2 8h1M6 8h1M2 9h1M6 9h1M9 9h1M2 10h1M6 10h1M9 10h1M2 11h1M6 11h1M8 11h2" />
<path stroke="#2d2f31" d="M1 1h1M0 2h1" />
<path stroke="#ecf6ff" d="M2 1h1M6 1h1M1 2h6M2 3h2M2 4h2M1 5h4M3 8h2M3 9h2M3 10h2M3 11h2" />
<path stroke="#272727" d="M1 3h1M4 3h1" />
<path stroke="#a9b1b8" d="M6 3h1M6 4h1M5 5h2M3 7h3M5 8h1M5 9h1M5 10h1M5 11h1" />
</svg>