<svg xmlns="http://www.w3.org/2000/svg" viewBox="0 -0.5 12 16" shape-rendering="crispEdges">
<metadata>Made with Pixels to Svg https://codepen.io/shshaw/pen/XbxvNj</metadata>
<path stroke="#00004b" d="M4 2h2M8 2h2M5 3h3M9 3h1M9 4h1M2 5h1M7 5h1M9 5h1M2 6h2M6 6h2M9 6h1M2 7h1M9 7h1M2 8h8M4 9h1M8 9h1" />
<path stroke="#2b2c6e" d="M3 3h1M2 4h1" />
<path stroke="#ecf6ff" d="M4 3h1M8 3h1M3 4h6M4 5h2M4 6h2M3 7h4" />
<path stroke="#252467" d="M3 5h1M6 5h1" />
<path stroke="#a3a7cd" d="M8 5h1M8 6h1M7 7h2M5 9h3" />
</svg>