<?xml version="1.0" encoding="utf-8"?>
<!-- Generator: Adobe Illustrator 16.0.0, SVG Export Plug-In . SVG Version: 6.00 Build 0)  -->
<!DOCTYPE svg PUBLIC "-//W3C//DTD SVG 1.1//EN" "http://www.w3.org/Graphics/SVG/1.1/DTD/svg11.dtd">
<svg version="1.1" id="icon" xmlns="http://www.w3.org/2000/svg" xmlns:xlink="http://www.w3.org/1999/xlink" x="0px" y="0px"
	 width="64px" height="64px" viewBox="0 0 64 64" style="enable-background:new 0 0 64 64;" xml:space="preserve">
<style type="text/css">
<![CDATA[
	.st0{fill:none;stroke:#FFFFFF;stroke-width:6;stroke-linecap:round;stroke-miterlimit:10;}
	.st1{fill:#FFFFFF;}
]]>
</style>
<g id="box">
	<path class="st1" d="M52,6c3.309,0,6,2.691,6,6v40c0,3.309-2.691,6-6,6H12c-3.309,0-6-2.691-6-6V12c0-3.309,2.691-6,6-6H52 M52,0
		H12C5.373,0,0,5.373,0,12v40c0,6.627,5.373,12,12,12h40c6.627,0,12-5.373,12-12V12C64,5.373,58.627,0,52,0L52,0z"/>
</g>
<g id="cross">
	<line id="_x32_" class="st0" x1="42" y1="22" x2="22" y2="42"/>
	<line id="_x31_" class="st0" x1="42" y1="41.999" x2="22" y2="22"/>
</g>
</svg>
