<?xml version="1.0" encoding="utf-8"?>
<!-- Generator: Adobe Illustrator 16.0.0, SVG Export Plug-In . SVG Version: 6.00 Build 0)  -->
<!DOCTYPE svg PUBLIC "-//W3C//DTD SVG 1.1//EN" "http://www.w3.org/Graphics/SVG/1.1/DTD/svg11.dtd">
<svg version="1.1" id="icon" xmlns="http://www.w3.org/2000/svg" xmlns:xlink="http://www.w3.org/1999/xlink" x="0px" y="0px"
	 width="64px" height="64px" viewBox="0 0 64 64" enable-background="new 0 0 64 64" xml:space="preserve">
<g id="box">
	<path fill="#FFFFFF" d="M50.6,5.92c3.573,0,7.48,3.906,7.48,7.48v37.2c0,3.573-3.907,7.48-7.48,7.48H13.4
		c-3.574,0-7.48-3.907-7.48-7.48V13.4c0-3.574,3.906-7.48,6.48-7.48h40.2 M52,0H12C5.373,0,0,5.373,0,12v40c0,6.627,5.373,12,12,12
		h40c6.627,0,12-5.373,12-12V12C64,5.373,58.627,0,52,0L52,0z"/>
</g>
<g id="cross">
	
		<line id="_x32_" fill="none" stroke="#FFFFFF" stroke-width="5" stroke-linecap="round" stroke-miterlimit="10" x1="46.833" y1="17.167" x2="17.167" y2="46.833"/>
	
		<line id="_x31_" fill="none" stroke="#FFFFFF" stroke-width="5" stroke-linecap="round" stroke-miterlimit="10" x1="46.833" y1="46.831" x2="17.167" y2="17.167"/>
</g>
</svg>
